# xmcd
#
# Track frame offsets: 
#        150
#        16243
#        31435
#        45164
#        54339
#        66075
#        78141
#        97365
#        120821
#        139352
#        155064
#        164578
#        172615
#
# Disc length: 2476 seconds
#
# Revision: 0
# Processed by: cddbd v1.5.2PL0 Copyright (c) Steve Scherf et al.
# Submitted via: ExactAudioCopy v0.99pb3
#
DISCID=9c09aa0d
DTITLE=Replacements - Live at Al's Bar- disc 2
DYEAR=1985
DGENRE=Ambient
TTITLE0=Kick Your Door Down
TTITLE1=Baby Strange
TTITLE2=Black Diamond
TTITLE3=Yeah Yeah
TTITLE4=Help Me Rhonda
TTITLE5=Little GTO
TTITLE6=Sugar Sugar
TTITLE7=Rattlesnake Blues
TTITLE8=Let it Bleed
TTITLE9=Tommy Gets His Tonsils Out
TTITLE10=Amen
TTITLE11=Kubaya
TTITLE12=Gary's Got a Boner
EXTD=
EXTT0=
EXTT1=
EXTT2=
EXTT3=
EXTT4=
EXTT5=
EXTT6=
EXTT7=
EXTT8=
EXTT9=
EXTT10=
EXTT11=
EXTT12=
PLAYORDER=
